<?xml version="1.0" encoding="UTF-8"?>
<!DOCTYPE svg PUBLIC "-//W3C//DTD SVG 1.1//EN" "http://www.w3.org/Graphics/SVG/1.1/DTD/svg11.dtd">
<!-- Creator: CorelDRAW X7 -->
<svg xmlns="http://www.w3.org/2000/svg" xml:space="preserve" width="10.1087cm" height="9.23458cm" version="1.1" style="shape-rendering:geometricPrecision; text-rendering:geometricPrecision; image-rendering:optimizeQuality; fill-rule:evenodd; clip-rule:evenodd"
viewBox="0 0 2959 2703"
 xmlns:xlink="http://www.w3.org/1999/xlink">
 <defs>
  <style type="text/css">
   <![CDATA[
    .fil4 {fill:#4D4D4D}
    .fil3 {fill:gray}
    .fil2 {fill:#B3B3B3}
    .fil1 {fill:#E6E6E6}
    .fil0 {fill:white}
    .fil5 {fill:white;fill-rule:nonzero}
   ]]>
  </style>
 </defs>
 <g id="Capa_x0020_1">
  <metadata id="CorelCorpID_0Corel-Layer"/>
  <g id="_2213924801920">
   <path class="fil0" d="M1941 16c-48,-6 -96,-10 -145,-10l0 338c34,0 68,2 102,6l43 -334z"/>
   <path class="fil1" d="M2276 112c-74,-34 -151,-60 -231,-78l-74 329c57,12 111,31 164,55l141 -306z"/>
   <path class="fil2" d="M2587 325c-65,-63 -138,-118 -216,-163l-170 291c55,32 107,71 153,115l233 -243z"/>
   <path class="fil3" d="M2834 672c-46,-100 -105,-192 -177,-274l-254 221c50,58 92,123 124,193l307 -140z"/>
   <path class="fil4" d="M2938 1149c0,-63 -5,-126 -15,-188 -11,-62 -26,-123 -46,-182l-319 109c14,42 25,85 32,128 7,44 11,88 11,133l337 0z"/>
   <polygon class="fil0" points="1831,1097 1782,1097 1794,463 1819,463 "/>
   <polygon class="fil0" points="1843,1157 1843,1104 2334,1117 2334,1143 "/>
   <polygon class="fil0" points="1806,1060 1879,1133 1806,1206 1733,1133 "/>
   <path class="fil5" d="M969 1077c0,27 7,48 22,63 15,14 32,21 52,21 20,0 37,-7 52,-21 15,-15 22,-36 22,-63 0,-24 0,-47 0,-67 0,-20 0,-41 0,-61 0,-21 0,-42 0,-65 0,-39 0,-75 0,-108 0,-33 0,-66 0,-100 0,-33 0,-69 0,-108 0,-18 0,-40 0,-63 0,-24 0,-52 0,-83 0,-31 0,-68 0,-110 0,-42 0,-91 0,-147 0,-41 -6,-75 -19,-101 -12,-26 -29,-44 -50,-55 -21,-10 -44,-12 -68,-5 -24,8 -48,24 -71,49 -23,25 -43,60 -59,104 -18,45 -36,93 -55,144 -18,50 -37,102 -57,156 -19,53 -39,107 -58,161 -20,54 -40,107 -60,160 -17,46 -35,81 -52,106 -17,24 -33,42 -47,53 -14,12 -26,21 -35,27 -10,6 -15,13 -17,23 -1,9 2,24 9,45 12,30 26,54 40,72 14,18 29,30 44,36 16,6 31,6 46,0 15,-6 29,-19 44,-38 14,-20 27,-47 39,-80 11,-29 16,-50 14,-62 -1,-11 -7,-19 -18,-24 -10,-4 -24,-10 -40,-18 -15,-7 -33,-22 -51,-43 -18,-22 -36,-56 -53,-104 -20,-53 -40,-105 -59,-158 -19,-53 -38,-105 -57,-157 -19,-52 -37,-102 -55,-151 -18,-49 -36,-96 -54,-140 -18,-46 -38,-82 -62,-108 -24,-26 -47,-42 -72,-49 -24,-7 -46,-6 -67,5 -21,10 -38,29 -51,56 -12,27 -19,61 -19,103 0,55 0,101 0,139 0,37 0,69 0,96 0,27 0,53 0,79 0,25 0,53 0,82 0,30 0,64 0,103 0,40 0,79 0,118 0,39 0,73 0,103 0,17 0,37 0,59 0,22 0,44 0,66 0,21 0,41 0,60 0,27 8,48 23,63 14,14 32,21 52,21 19,0 37,-7 52,-21 14,-15 22,-36 22,-63 0,-23 0,-45 0,-64 0,-19 0,-39 0,-58 0,-20 0,-41 0,-63 0,-27 0,-50 0,-72 0,-21 0,-42 0,-61 0,-19 0,-39 0,-58 0,-19 0,-39 0,-61 0,-21 0,-45 0,-72 0,-13 0,-27 0,-42 0,-15 0,-30 0,-45 0,-16 0,-31 0,-46 0,-15 0,-29 0,-43 0,-13 0,-26 0,-38 0,-11 0,-21 0,-30 0,-9 0,-16 1,-22 0,-5 1,-9 1,-11 1,-2 2,-3 4,-1 1,2 3,5 5,10 3,5 5,12 9,21 4,11 9,23 15,38 5,14 11,30 18,47 6,18 13,36 20,56 8,19 15,39 22,58 7,20 14,39 21,58 7,19 14,37 20,55 6,17 12,33 17,48 10,27 19,51 26,71 7,21 15,42 22,65 8,22 18,50 31,84 13,34 29,77 50,131 12,30 26,54 40,72 14,18 29,30 44,36 16,6 31,6 46,0 15,-6 29,-19 44,-38 14,-20 27,-47 39,-80 19,-51 34,-94 46,-127 11,-33 21,-61 30,-83 9,-23 17,-45 25,-66 8,-22 16,-46 26,-74 6,-14 12,-30 18,-47 6,-17 12,-35 20,-54 7,-20 14,-39 20,-58 7,-19 14,-38 21,-57 7,-19 14,-37 20,-54 7,-17 13,-33 18,-48 5,-14 9,-27 14,-38 3,-8 6,-14 8,-19 2,-5 4,-9 6,-11 2,-2 3,-3 3,-1 1,2 1,5 2,10 0,5 1,12 1,22 0,15 0,28 0,40 0,12 0,24 0,35 0,11 0,22 0,33 0,11 0,22 0,33 0,11 0,22 0,33 0,12 0,24 0,37 0,12 0,26 0,40 0,20 0,40 0,61 0,21 0,43 0,65 0,22 0,44 0,66 0,22 0,43 0,64 0,21 0,41 0,60 0,28 0,60 0,96 0,36 0,68 0,97zm421 0c0,28 7,50 22,63 15,14 32,21 52,21 20,0 37,-7 52,-21 15,-13 22,-35 22,-63 0,-37 0,-70 0,-99 0,-30 0,-57 0,-82 0,-25 0,-48 0,-69 0,-52 0,-106 0,-161 0,-55 0,-111 0,-166 0,-56 0,-110 0,-161 0,-26 0,-51 0,-75 0,-25 0,-52 0,-80 0,-29 0,-62 0,-98 0,-27 -7,-48 -22,-62 -15,-14 -32,-20 -52,-20 -20,0 -37,6 -52,20 -15,14 -22,35 -22,62 0,36 0,69 0,98 0,28 0,55 0,80 0,24 0,49 0,75 0,51 0,105 0,161 0,55 0,111 0,166 0,55 0,109 0,161 0,21 0,44 0,69 0,25 0,52 0,82 0,29 0,62 0,99z"/>
   <path class="fil5" d="M0 2157c0,19 5,33 15,43 10,10 22,15 36,15 14,0 25,-5 36,-15 10,-10 15,-24 15,-43 0,-19 0,-36 0,-52 0,-15 0,-30 0,-44 0,-14 0,-28 0,-41 0,-25 0,-52 0,-82 0,-29 0,-61 0,-95 0,-34 0,-69 0,-107 0,-37 0,-76 0,-117 0,-13 0,-25 -1,-36 0,-10 0,-19 1,-27 2,-7 4,-12 9,-16 4,-4 12,-6 21,-6 12,0 25,0 39,0 15,0 33,0 55,0 31,0 57,6 78,16 22,11 39,26 51,45 12,19 18,42 18,68 0,27 -5,50 -17,69 -11,19 -27,34 -46,44 -20,10 -44,15 -70,15 -6,0 -12,0 -18,0 -6,0 -12,0 -17,0 -5,0 -11,0 -17,0 -6,0 -12,0 -18,0 -15,0 -28,4 -37,10 -9,7 -16,16 -19,26 -3,10 -3,20 0,31 3,10 10,18 19,25 9,7 22,10 37,10 30,0 53,2 69,7 16,4 29,12 40,23 11,10 23,25 37,44 12,16 23,32 34,49 11,18 22,36 34,54 11,18 22,36 34,56 12,19 24,38 37,58 10,17 23,26 37,28 14,3 26,0 37,-7 11,-7 18,-18 22,-31 4,-14 0,-28 -10,-44 -13,-21 -25,-40 -37,-59 -12,-19 -23,-38 -34,-56 -12,-19 -23,-37 -35,-55 -12,-17 -23,-35 -36,-52 -11,-16 -23,-31 -36,-45 -14,-14 -29,-26 -47,-37 -17,-11 -38,-20 -62,-26 -24,-6 -52,-9 -84,-9 -15,0 -28,4 -37,10 -9,7 -16,16 -19,26 -3,10 -3,20 0,31 3,10 10,18 19,25 9,7 22,10 37,10 2,0 5,0 9,0 5,0 9,0 15,0 5,0 10,0 16,0 7,0 13,0 19,0 45,0 86,-10 124,-29 37,-20 67,-47 89,-81 22,-35 33,-74 33,-120 0,-33 -6,-63 -17,-91 -12,-28 -29,-52 -51,-73 -21,-21 -48,-37 -78,-49 -31,-12 -65,-17 -103,-17 -14,0 -31,0 -50,0 -19,0 -38,0 -55,0 -26,0 -46,3 -62,11 -16,7 -28,19 -37,34 -9,15 -14,34 -17,58 -3,24 -5,52 -5,83 0,27 0,60 0,99 0,38 0,77 0,117 0,40 0,77 0,110 0,33 0,58 0,75 0,11 0,25 0,40 0,16 0,32 0,49 0,17 0,33 0,48zm1061 -623c19,0 34,-5 43,-15 10,-10 15,-22 15,-36 0,-13 -5,-25 -15,-35 -9,-10 -24,-15 -43,-15 -22,0 -41,0 -55,0 -14,0 -28,0 -41,0 -13,0 -30,0 -50,0 -11,0 -21,0 -29,0 -8,0 -18,0 -28,0 -11,0 -25,0 -42,0 -35,0 -63,5 -83,17 -21,11 -36,28 -46,51 -9,23 -14,52 -14,85 0,15 0,30 0,47 0,17 0,34 0,50 0,16 0,28 0,37 0,20 4,38 10,54 6,17 15,31 27,44 11,12 24,22 39,29 14,7 30,10 48,10 9,0 25,0 46,0 21,0 44,0 69,0 24,0 48,0 71,0 23,0 42,0 56,0 15,0 27,-3 36,-10 9,-7 15,-16 18,-26 3,-10 3,-20 0,-30 -3,-10 -9,-19 -18,-26 -9,-7 -21,-10 -36,-10 -14,0 -32,0 -52,0 -20,0 -41,0 -64,0 -22,0 -44,0 -66,0 -21,0 -41,0 -59,0 -29,0 -52,4 -71,13 -18,9 -32,21 -41,38 -8,17 -13,37 -13,60 0,18 0,39 0,63 0,25 0,49 0,73 0,24 0,45 0,62 0,33 6,60 17,80 11,21 27,35 47,45 21,9 46,13 77,13 9,0 17,0 24,0 7,0 16,0 27,0 10,0 25,0 44,0 17,0 40,0 70,0 29,0 57,0 82,0 19,0 33,-5 43,-15 9,-10 14,-22 14,-36 0,-13 -5,-25 -14,-35 -10,-11 -24,-16 -43,-16 -25,0 -46,0 -62,0 -17,0 -31,0 -44,0 -14,0 -29,0 -46,0 -19,0 -35,0 -47,0 -12,0 -28,0 -48,0 -17,0 -28,-1 -32,-4 -5,-3 -7,-14 -7,-32 0,-11 0,-28 0,-49 0,-21 0,-44 0,-70 0,-26 0,-53 0,-79 0,-6 2,-9 6,-9 4,0 9,0 17,0 12,0 28,0 49,0 21,0 43,0 67,0 25,0 48,0 70,0 22,0 41,0 55,0 15,0 27,-3 36,-10 9,-7 15,-16 18,-26 3,-10 3,-20 0,-30 -3,-10 -9,-19 -18,-26 -9,-7 -21,-10 -36,-10 -14,0 -32,0 -53,0 -21,0 -44,0 -67,0 -23,0 -46,0 -67,0 -22,0 -40,0 -55,0 -4,0 -7,-1 -10,-3 -3,-3 -5,-5 -7,-9 -2,-3 -3,-7 -4,-11 0,-4 -1,-8 -1,-12 0,-14 0,-27 0,-40 0,-12 0,-26 0,-41 0,-16 0,-33 0,-53 0,-21 2,-35 5,-41 3,-7 15,-11 36,-11 12,0 22,0 31,0 9,0 18,0 28,0 11,0 24,0 40,0 20,0 44,0 71,0 28,0 53,0 75,0zm581 668c19,0 33,-5 42,-15 10,-10 15,-22 15,-36 0,-13 -5,-25 -15,-35 -9,-11 -23,-16 -42,-16 -20,0 -38,0 -57,0 -18,0 -35,0 -52,0 -17,0 -34,0 -51,0 -16,0 -33,0 -52,0 -18,0 -31,-1 -40,-2 -9,-2 -15,-6 -18,-14 -3,-8 -5,-21 -5,-38 0,-17 0,-42 0,-74 0,-36 0,-70 0,-102 0,-32 0,-63 0,-92 0,-29 0,-57 0,-84 0,-27 0,-54 0,-80 0,-17 0,-32 0,-47 0,-14 0,-28 0,-43 0,-14 0,-30 0,-46 0,-19 -5,-33 -15,-43 -10,-9 -22,-14 -36,-14 -13,0 -25,5 -36,14 -10,10 -15,24 -15,43 0,16 0,32 0,47 0,15 0,30 0,44 0,14 0,29 0,45 0,36 0,75 0,117 0,42 0,85 0,129 0,45 0,90 0,136 0,43 1,78 4,105 2,28 7,48 17,63 9,14 23,24 43,30 19,5 46,8 80,8 32,0 63,0 90,0 28,0 54,0 78,0 24,0 45,0 65,0zm424 2c19,4 34,2 45,-6 11,-9 18,-19 20,-33 3,-13 1,-25 -7,-37 -7,-12 -21,-19 -40,-23 -17,-4 -33,-9 -46,-14 -14,-6 -29,-14 -44,-24 -24,-16 -45,-37 -62,-62 -18,-26 -31,-54 -39,-86 -9,-32 -13,-67 -13,-103 0,-43 6,-82 18,-118 13,-36 31,-67 54,-93 23,-26 51,-46 84,-60 32,-15 68,-22 107,-22 40,0 75,7 107,22 31,14 59,34 81,61 23,26 40,57 53,93 12,35 18,74 18,117 0,36 -4,69 -13,100 -8,32 -21,60 -37,85 -16,25 -36,46 -59,63 -15,11 -29,19 -44,25 -15,7 -31,12 -48,16 -19,4 -32,11 -39,23 -7,12 -9,24 -7,37 3,14 10,24 21,33 11,8 27,10 45,6 25,-4 47,-11 69,-21 21,-9 43,-22 64,-37 31,-24 58,-52 80,-85 23,-33 40,-70 52,-111 12,-42 18,-86 18,-134 0,-77 -15,-145 -46,-204 -31,-59 -74,-106 -128,-140 -54,-34 -117,-51 -187,-51 -70,0 -132,17 -188,51 -55,33 -98,80 -130,139 -31,60 -47,128 -47,205 0,49 6,95 19,138 13,42 31,80 55,113 25,34 53,62 85,84 21,14 41,25 62,34 21,8 43,15 67,19zm561 -130c-16,-7 -30,-8 -42,-3 -12,5 -21,14 -27,26 -6,13 -6,26 -2,39 5,14 16,25 33,33 29,14 56,24 82,30 26,6 51,9 74,9 42,0 79,-10 111,-29 33,-18 58,-45 76,-80 18,-36 27,-78 27,-128 0,-44 0,-83 0,-116 0,-34 0,-64 0,-93 0,-28 0,-57 0,-87 0,-20 0,-38 0,-55 0,-17 0,-33 0,-48 0,-15 0,-30 0,-46 0,-15 0,-31 0,-48 0,-19 -5,-33 -15,-43 -10,-9 -22,-14 -36,-14 -13,0 -25,5 -35,14 -11,10 -16,24 -16,43 0,23 0,45 0,67 0,21 0,42 0,64 0,21 0,43 0,66 0,36 0,71 0,105 0,34 0,67 0,98 0,32 0,63 0,93 0,29 -4,53 -13,73 -8,20 -21,35 -38,46 -16,11 -36,16 -61,16 -16,0 -34,-3 -53,-7 -20,-5 -41,-13 -65,-25z"/>
   <path class="fil5" d="M306 2389c37,0 74,3 108,9 35,7 66,17 92,31 26,14 46,30 59,48 12,18 19,39 19,63 0,25 -7,48 -21,68 -15,21 -35,39 -62,53 -27,15 -59,26 -96,32 -37,7 -76,10 -116,10 -40,0 -78,-3 -115,-9 -36,-7 -68,-18 -95,-32 -27,-15 -46,-32 -57,-50 -11,-18 -17,-38 -17,-60 0,-32 12,-61 36,-85 24,-25 59,-44 106,-57 47,-14 100,-21 159,-21zm-7 67c-27,0 -51,4 -73,12 -22,9 -39,20 -51,35 -12,15 -18,31 -18,48 0,16 6,30 17,43 10,13 27,23 49,31 22,7 45,11 69,11 27,0 51,-4 72,-13 22,-8 39,-19 50,-34 12,-15 17,-31 17,-47 0,-16 -5,-31 -15,-44 -11,-13 -27,-24 -47,-31 -21,-8 -44,-11 -70,-11zm341 241l7 -46 14 -158 4 -64 0 -35c37,1 69,1 97,1 20,0 48,0 84,-1l152 173 21 25c2,-25 5,-60 7,-105 3,-44 4,-75 4,-93 29,1 52,1 70,1 8,0 31,0 69,-1l-8 67 -16 183 -2 53c-31,0 -59,0 -86,0 -22,0 -53,0 -92,0 -12,-14 -21,-25 -27,-31l-60 -63c-19,-21 -37,-41 -54,-60 -11,-12 -22,-25 -33,-40l-7 106 -4 88c-29,0 -51,0 -67,0 -13,0 -37,0 -73,0zm590 0c6,-34 10,-63 13,-85 5,-40 8,-80 11,-120 2,-40 3,-72 3,-98 32,1 61,1 85,1 17,0 41,0 73,-1l-9 81 -11 126 -1 31c41,0 67,0 79,0 62,0 109,0 141,-1l-8 66c-62,0 -121,0 -177,0 -76,0 -142,0 -199,0zm429 0c13,-118 20,-210 20,-274l0 -29c41,1 69,1 83,1 6,0 31,0 75,-1 -4,34 -7,65 -10,95 -3,41 -6,80 -7,116 -2,36 -2,67 -2,92l-72 0c-15,0 -44,0 -87,0zm246 0l7 -46 13 -158 4 -64 0 -35c37,1 69,1 97,1 20,0 48,0 84,-1l152 173 21 25c2,-25 5,-60 7,-105 3,-44 4,-75 4,-93 29,1 52,1 70,1 8,0 31,0 69,-1l-8 67 -16 183 -2 53c-31,0 -59,0 -86,0 -22,0 -53,0 -92,0 -12,-14 -21,-25 -27,-31l-60 -63c-19,-21 -37,-41 -54,-60 -10,-12 -22,-25 -33,-40l-7 106 -4 88c-29,0 -51,0 -67,0 -13,0 -37,0 -72,0zm592 0c6,-38 10,-70 13,-96 3,-25 5,-59 8,-102 3,-43 4,-71 4,-85l0 -20c55,1 123,1 201,1 73,0 137,0 193,-1l-1 8c0,1 -1,8 -2,19l-2 24c0,5 -1,11 -1,16 -45,-1 -83,-2 -114,-2 -34,0 -57,0 -68,0 -12,0 -31,1 -56,1l-4 51c28,1 60,1 97,1 13,0 48,-1 105,-2 -2,19 -4,42 -7,68 -40,0 -72,-1 -94,-1 -32,0 -68,1 -109,2l-4 54 40 0c12,0 37,0 75,-1l73 -1c11,0 29,-1 54,-2 -2,22 -5,45 -7,68 -57,0 -120,0 -188,0l-156 0 -50 0z"/>
  </g>
 </g>
</svg>
